<svg width="120" height="39" viewBox="0 0 120 39" fill="none" xmlns="http://www.w3.org/2000/svg">
<g clip-path="url(#clip0)">
<path d="M96.6466 28.7598C96.6466 28.7598 96.6466 28.7598 96.6462 28.7598C93.7752 28.7593 91.0496 26.8972 89.7027 24.0153C88.8037 22.0912 88.2376 19.1613 88.2615 16.5513C88.2917 13.2432 89.2606 10.9781 90.9898 10.1737C91.4546 9.95729 91.9699 9.84789 92.5206 9.84789C95.3433 9.84789 98.6475 12.7509 100.62 15.2372L101.158 15.9156L100.492 16.4694C99.0411 17.6762 97.7619 19.11 97.0701 20.3059C95.6946 22.6832 95.8627 25.4835 97.4889 27.2732L98.7801 28.6943L96.8586 28.7563C96.7881 28.7588 96.7176 28.7598 96.6466 28.7598ZM92.5206 11.6228C92.2275 11.6228 91.9726 11.6752 91.7414 11.7826C90.6997 12.2676 90.0638 14.0561 90.0408 16.5678C90.0191 18.8968 90.5317 21.5883 91.3151 23.2653C92.1033 24.9508 93.4684 26.1916 95.0166 26.713C94.0094 24.5077 94.1594 21.7855 95.5297 19.4178C96.2087 18.2447 97.3579 16.8904 98.6841 15.6865C96.5862 13.2634 94.1251 11.6228 92.5206 11.6228Z" fill="#37449A"/>
<path d="M101.115 30.6527C99.9472 30.6527 98.8071 30.3517 97.7766 29.7585C97.1765 29.4125 96.6371 28.9778 96.1709 28.4654L97.4893 27.2733C97.8307 27.6488 98.2267 27.9678 98.666 28.221C99.91 28.9377 101.381 29.071 102.808 28.596C104.259 28.1137 105.511 27.0644 106.334 25.6417C107.26 24.0412 107.996 21.4007 108.164 19.0721C108.349 16.5182 107.862 14.7126 106.828 14.1165C105.569 13.3919 103.082 14.3148 100.492 16.4695L99.3529 15.1061C100.921 13.8013 104.876 10.9429 107.717 12.5796C109.389 13.5422 110.177 15.8936 109.939 19.1995C109.75 21.8115 108.94 24.6892 107.875 26.5297C106.834 28.3284 105.235 29.6599 103.371 30.2798C102.623 30.5289 101.863 30.6527 101.115 30.6527Z" fill="#37449A"/>
<path d="M119.051 15.9082C119.021 15.9082 118.99 15.9008 118.962 15.8845L96.6583 3.0367C96.5729 2.98744 96.5443 2.87904 96.5931 2.79398C96.6423 2.70935 96.7511 2.67971 96.8364 2.72883L119.14 15.5773C119.225 15.6266 119.255 15.735 119.205 15.82C119.172 15.8766 119.112 15.9082 119.051 15.9082Z" fill="#37449A"/>
<path d="M112.532 9.87603C112.502 9.87603 112.471 9.86859 112.443 9.85226L100.086 2.73358C100.001 2.68447 99.9717 2.57592 100.021 2.49087C100.07 2.40624 100.179 2.3766 100.264 2.42571L112.621 9.54482C112.706 9.59408 112.735 9.70248 112.687 9.78711C112.653 9.84424 112.594 9.87603 112.532 9.87603Z" fill="#37449A"/>
<path d="M109.626 6.01792C109.595 6.01792 109.565 6.01047 109.537 5.99415L103.157 2.31946C103.072 2.2702 103.043 2.1618 103.092 2.07675C103.141 1.99212 103.25 1.96247 103.335 2.01173L109.715 5.68685C109.8 5.73597 109.829 5.84451 109.78 5.92956C109.747 5.98613 109.687 6.01792 109.626 6.01792Z" fill="#37449A"/>
<path d="M83.6321 13.3502C83.5705 13.3502 83.5106 13.3184 83.4778 13.2613C83.4291 13.1766 83.4577 13.0677 83.5431 13.0191L105.848 0.170618C105.933 0.121502 106.042 0.150571 106.091 0.235772C106.14 0.320401 106.111 0.428799 106.026 0.477915L83.721 13.3264C83.693 13.3427 83.6623 13.3502 83.6321 13.3502Z" fill="#37449A"/>
<path d="M85.0831 10.2377C85.0216 10.2377 84.9622 10.2055 84.9289 10.1488C84.8801 10.0637 84.9093 9.95517 84.9941 9.90606L97.3517 2.78695C97.4371 2.73841 97.5457 2.76748 97.595 2.85211C97.6438 2.93731 97.6146 3.04571 97.5297 3.09482L85.1722 10.2139C85.1439 10.2298 85.1133 10.2377 85.0831 10.2377Z" fill="#37449A"/>
<path d="M86.2594 7.37554C86.1978 7.37554 86.138 7.34375 86.1051 7.28661C86.0557 7.20199 86.0848 7.09359 86.1702 7.04447L92.5507 3.36921C92.6355 3.3201 92.7443 3.34916 92.7934 3.43437C92.8428 3.51899 92.8136 3.62797 92.7282 3.67651L86.3484 7.35162C86.3204 7.36809 86.2895 7.37554 86.2594 7.37554Z" fill="#37449A"/>
<path d="M86.0062 29.8277C85.9075 29.8277 85.8281 29.7478 85.8281 29.65L85.8287 3.9527C85.8287 3.85432 85.9082 3.77499 86.0062 3.77499C86.1048 3.77499 86.1842 3.85432 86.1842 3.9527V29.65C86.1842 29.7478 86.1043 29.8277 86.0062 29.8277Z" fill="#37449A"/>
<path d="M84.0295 27.0173C83.9309 27.0173 83.8516 26.9372 83.8516 26.8396V12.6028C83.8516 12.505 83.9311 12.4256 84.0295 12.4256C84.1277 12.4256 84.2072 12.505 84.2072 12.6028V26.8396C84.2072 26.9372 84.1275 27.0173 84.0295 27.0173Z" fill="#37449A"/>
<path d="M82.1336 24.5701C82.0356 24.5701 81.9561 24.4902 81.9561 24.3925V17.0422C81.9561 16.9444 82.0361 16.8651 82.1342 16.8651C82.2323 16.8651 82.3117 16.9444 82.3117 17.0422V24.3925C82.3117 24.4903 82.2322 24.5701 82.1336 24.5701Z" fill="#37449A"/>
<path d="M101.495 36.015C101.465 36.015 101.434 36.007 101.406 35.9913L79.1015 23.1428C79.0167 23.0935 78.9875 22.9851 79.0363 22.9C79.0857 22.8154 79.1944 22.7858 79.2796 22.835L101.584 35.6834C101.669 35.7327 101.698 35.8411 101.649 35.9261C101.616 35.9827 101.556 36.015 101.495 36.015Z" fill="#37449A"/>
<path d="M98.068 36.3175C98.0377 36.3175 98.007 36.3101 97.979 36.2943L85.6214 29.1751C85.536 29.1258 85.5069 29.0174 85.5563 28.9323C85.6051 28.8477 85.7137 28.8186 85.7989 28.8673L98.1568 35.9864C98.2422 36.0357 98.2714 36.1442 98.2221 36.2292C98.1894 36.2859 98.1296 36.3175 98.068 36.3175Z" fill="#37449A"/>
<path d="M94.9961 36.7327C94.9658 36.7327 94.9351 36.7247 94.907 36.709L88.5271 33.0333C88.4423 32.984 88.4132 32.8756 88.4625 32.7906C88.5113 32.7059 88.62 32.6769 88.7052 32.726L95.0851 36.4012C95.1705 36.4504 95.1996 36.5589 95.1503 36.644C95.1175 36.701 95.0575 36.7327 94.9961 36.7327Z" fill="#37449A"/>
<path d="M92.3052 38.5731C92.2436 38.5731 92.1837 38.5413 92.1509 38.4843C92.1017 38.3997 92.1308 38.2907 92.2162 38.2421L114.52 25.3936C114.605 25.3444 114.714 25.3735 114.763 25.4587C114.812 25.5433 114.783 25.6517 114.698 25.7008L92.3936 38.5493C92.3656 38.5658 92.3353 38.5731 92.3052 38.5731Z" fill="#37449A"/>
<path d="M100.801 35.9563C100.74 35.9563 100.68 35.9245 100.647 35.8675C100.598 35.7828 100.627 35.6744 100.712 35.6253L113.069 28.5062C113.154 28.4569 113.263 28.4865 113.313 28.5712C113.361 28.6564 113.332 28.7648 113.247 28.8139L100.89 35.9326C100.862 35.9489 100.832 35.9563 100.801 35.9563Z" fill="#37449A"/>
<path d="M105.603 35.3746C105.541 35.3746 105.481 35.3428 105.448 35.2857C105.4 35.2005 105.429 35.0921 105.514 35.043L111.894 31.3684C111.979 31.3192 112.088 31.3482 112.137 31.4334C112.186 31.5181 112.157 31.6266 112.072 31.6756L105.692 35.3508C105.664 35.3667 105.633 35.3746 105.603 35.3746Z" fill="#37449A"/>
<path d="M112.236 34.9445C112.138 34.9445 112.058 34.8652 112.058 34.7674V9.07053C112.058 8.97273 112.138 8.89282 112.236 8.89282C112.334 8.89282 112.414 8.97273 112.414 9.07053V34.7674C112.414 34.8653 112.334 34.9445 112.236 34.9445Z" fill="#37449A"/>
<path d="M114.212 26.2944C114.114 26.2944 114.034 26.2149 114.034 26.1172V11.8804C114.034 11.7821 114.114 11.7027 114.212 11.7027C114.31 11.7027 114.39 11.7821 114.39 11.8804V26.1172C114.39 26.215 114.31 26.2944 114.212 26.2944Z" fill="#37449A"/>
<path d="M116.108 21.8549C116.01 21.8549 115.931 21.7756 115.931 21.6774L115.931 14.3276C115.931 14.2292 116.011 14.1499 116.109 14.1499C116.207 14.1499 116.287 14.2292 116.287 14.3276L116.286 21.6774C116.286 21.7758 116.207 21.8549 116.108 21.8549Z" fill="#37449A"/>
<path d="M9.26754 9.87173C9.54424 9.87173 9.79239 9.94476 10.0113 10.0901C10.2295 10.2356 10.3388 10.4608 10.3388 10.7666V25.2756C10.3388 25.5813 10.2327 25.8029 10.0219 25.9408C9.8109 26.0795 9.57338 26.1482 9.3116 26.1482C9.04867 26.1482 8.81172 26.0795 8.60074 25.9408C8.3892 25.8028 8.28328 25.5811 8.28328 25.2756V24.4469H8.23979C7.93338 25.0287 7.45948 25.4687 6.81809 25.7664C6.1767 26.0647 5.46212 26.2139 4.67549 26.2139C3.17327 26.2139 2.03258 25.7448 1.25283 24.8066C0.473094 23.8684 0.0830078 22.4831 0.0830078 20.6502V19.9082C0.0830078 18.0466 0.51658 16.6503 1.38372 15.719C2.25087 14.7886 3.41395 14.3228 4.87211 14.3228C5.74672 14.3228 6.45757 14.472 7.00395 14.7703C7.55047 15.0686 7.94055 15.3996 8.17377 15.7629V10.7667C8.17377 10.461 8.28299 10.2357 8.50186 10.0903C8.72073 9.94476 8.97562 9.87173 9.26754 9.87173ZM5.15642 16.1991C4.20862 16.1991 3.48356 16.5084 2.98052 17.1262C2.47806 17.7449 2.22618 18.7012 2.22618 19.9954V20.5629C2.22618 21.8718 2.45567 22.8324 2.91479 23.4431C3.37377 24.054 4.09208 24.3595 5.06902 24.3595C5.50632 24.3595 5.91822 24.2829 6.30458 24.13C6.69093 23.9776 7.02591 23.763 7.31007 23.4863C7.59467 23.2102 7.81684 22.8792 7.97744 22.4936C8.13746 22.1086 8.21812 21.6828 8.21812 21.2174V18.7079C8.21812 18.4027 8.15239 18.097 8.02136 17.7919C7.88989 17.4862 7.6927 17.2175 7.43092 16.9843C7.16799 16.752 6.84737 16.5628 6.46833 16.4173C6.0893 16.272 5.65199 16.1991 5.15642 16.1991Z" fill="#37449A"/>
<path d="M18.6491 14.3227C20.3257 14.3227 21.6413 14.7918 22.5964 15.73C23.5505 16.6682 24.0286 18.0612 24.0286 19.9082V20.6285C24.0286 22.4758 23.5504 23.8684 22.5964 24.8066C21.6413 25.7448 20.3257 26.2139 18.6491 26.2139C16.9725 26.2139 15.6568 25.7448 14.7017 24.8066C13.747 23.8684 13.2695 22.476 13.2695 20.6285V19.9082C13.2695 18.0614 13.7472 16.6684 14.7017 15.73C15.6567 14.7918 16.9723 14.3227 18.6491 14.3227ZM18.6491 16.2209C17.5995 16.2209 16.8013 16.5192 16.2547 17.1157C15.7076 17.7123 15.4342 18.6648 15.4342 19.9738V20.5629C15.4342 21.8866 15.7078 22.8428 16.2547 23.4319C16.8013 24.0212 17.5995 24.3157 18.6491 24.3157C19.713 24.3157 20.5154 24.0212 21.0545 23.4319C21.5935 22.8428 21.8639 21.8866 21.8639 20.5629V19.9738C21.8639 18.6648 21.5935 17.7123 21.0545 17.1157C20.5154 16.5192 19.7128 16.2209 18.6491 16.2209Z" fill="#37449A"/>
<path d="M31.7258 14.3227C33.402 14.3227 34.7176 14.7918 35.6727 15.73C36.6274 16.6682 37.1049 18.0612 37.1049 19.9082V20.6285C37.1049 22.4758 36.6273 23.8684 35.6727 24.8066C34.7176 25.7448 33.402 26.2139 31.7258 26.2139C30.0486 26.2139 28.733 25.7448 27.7785 24.8066C26.8233 23.8684 26.3457 22.476 26.3457 20.6285V19.9082C26.3457 18.0614 26.8233 16.6684 27.7785 15.73C28.7331 14.7918 30.0488 14.3227 31.7258 14.3227ZM31.7258 16.2209C30.6758 16.2209 29.8776 16.5192 29.3309 17.1157C28.7838 17.7123 28.511 18.6648 28.511 19.9738V20.5629C28.511 21.8866 28.784 22.8428 29.3309 23.4319C29.8774 24.0212 30.6757 24.3157 31.7258 24.3157C32.7892 24.3157 33.5917 24.0212 34.1313 23.4319C34.6698 22.8428 34.9402 21.8866 34.9402 20.5629V19.9738C34.9402 18.6648 34.6698 17.7123 34.1313 17.1157C33.5917 16.5192 32.7892 16.2209 31.7258 16.2209Z" fill="#37449A"/>
<path d="M45.7646 14.3227C47.0765 14.3227 48.0969 14.6903 48.8257 15.4249C49.5551 16.1595 49.9198 17.2104 49.9198 18.5775V25.254C49.9198 25.5597 49.81 25.7851 49.5911 25.9306C49.3727 26.076 49.1247 26.1484 48.848 26.1484C48.5707 26.1484 48.3231 26.0759 48.1042 25.9306C47.8854 25.7851 47.7762 25.5597 47.7762 25.254V19.0794C47.7762 18.0322 47.5467 17.2939 47.0877 16.8644C46.6281 16.4356 45.9836 16.2208 45.1525 16.2208C44.7585 16.2208 44.3828 16.2899 44.026 16.4281C43.6688 16.5666 43.3555 16.7592 43.0857 17.0062C42.8158 17.2542 42.6007 17.5556 42.4405 17.9122C42.2799 18.2686 42.1999 18.6723 42.1999 19.1228V25.254C42.1999 25.5597 42.0906 25.7851 41.8723 25.9306C41.6535 26.076 41.3984 26.1484 41.107 26.1484C40.8292 26.1484 40.5822 26.0759 40.3632 25.9306C40.1442 25.7852 40.0352 25.5597 40.0352 25.254V15.3483C40.0352 15.0431 40.1406 14.8215 40.352 14.683C40.563 14.5449 40.8005 14.4756 41.0629 14.4756C41.3252 14.4756 41.5622 14.5449 41.7737 14.683C41.9847 14.8215 42.0906 15.0431 42.0906 15.3483V16.1119H42.1341C42.4108 15.6032 42.8778 15.1774 43.534 14.8358C44.1898 14.494 44.9335 14.3227 45.7646 14.3227Z" fill="#37449A"/>
<path d="M57.5074 14.3227C58.3826 14.3227 59.1041 14.4755 59.6727 14.7812C60.2409 15.0864 60.6422 15.4212 60.8754 15.7844H60.8971V15.3481C60.8971 15.043 61.0025 14.8213 61.2141 14.6828C61.4256 14.5448 61.6699 14.4755 61.9466 14.4755C62.209 14.4755 62.4459 14.5448 62.6575 14.6828C62.869 14.8213 62.9745 15.043 62.9745 15.3481V25.7119C62.9745 27.3847 62.5297 28.6175 61.6408 29.4102C60.7514 30.2029 59.4389 30.5992 57.7045 30.5992C57.0192 30.5992 56.3776 30.5157 55.7803 30.3484C55.1824 30.1813 54.665 29.9667 54.2271 29.7049C53.979 29.5594 53.8444 29.3589 53.8227 29.1052C53.801 28.8503 53.8481 28.6138 53.9648 28.396C54.1106 28.1484 54.2854 27.9881 54.4901 27.9157C54.6936 27.8426 54.9268 27.8723 55.1897 28.0029C55.5247 28.2065 55.9112 28.3773 56.3485 28.516C56.7858 28.654 57.238 28.7232 57.7045 28.7232C58.7105 28.7232 59.4866 28.4863 60.0336 28.0141C60.5802 27.5412 60.8537 26.7664 60.8537 25.6901V24.141H60.8097C60.5038 24.7376 60.0405 25.1814 59.4208 25.4722C58.8011 25.763 58.0979 25.9085 57.3107 25.9085C55.809 25.9085 54.6683 25.4431 53.8886 24.5118C53.1083 23.5816 52.7188 22.2212 52.7188 20.4321V19.8207C52.7188 18.003 53.1523 16.632 54.0195 15.7081C54.8868 14.7849 56.0497 14.3227 57.5074 14.3227ZM57.792 16.1991C56.8442 16.1991 56.1192 16.5049 55.6161 17.1156C55.1131 17.7263 54.8613 18.6572 54.8613 19.908V20.3449C54.8613 21.6099 55.0914 22.545 55.5504 23.1484C56.0094 23.752 56.7277 24.0538 57.7046 24.0538C58.1419 24.0538 58.5538 23.9777 58.9402 23.8247C59.326 23.6719 59.6615 23.4577 59.9462 23.1812C60.2303 22.905 60.4524 22.5741 60.613 22.1884C60.7731 21.803 60.8537 21.3777 60.8537 20.9117V18.7079C60.8537 18.4028 60.788 18.0971 60.6565 17.7919C60.5256 17.4862 60.329 17.2175 60.0661 16.9843C59.8037 16.752 59.483 16.5629 59.1039 16.4174C58.7245 16.272 58.2876 16.1991 57.792 16.1991Z" fill="#37449A"/>
<path d="M67.9819 14.4755C68.2734 14.4755 68.5253 14.5485 68.7368 14.6939C68.9478 14.8394 69.0537 15.0646 69.0537 15.3698V26.6723C69.0537 28.0536 68.7437 29.0247 68.1246 29.5848C67.5044 30.1448 66.6483 30.4252 65.5547 30.4252C64.855 30.4252 64.2571 30.3083 63.7616 30.0756C63.5283 29.9741 63.3758 29.8213 63.3026 29.6177C63.23 29.4135 63.2368 29.1883 63.3243 28.9411C63.4117 28.6644 63.5468 28.4863 63.7285 28.4065C63.9114 28.3266 64.1044 28.3229 64.3079 28.396C64.6726 28.5265 65.0298 28.5921 65.3797 28.5921C65.9337 28.5921 66.3271 28.4535 66.5608 28.1774C66.794 27.9008 66.9107 27.4063 66.9107 26.6941V15.3698C66.9107 15.0646 67.0199 14.8392 67.2388 14.6939C67.4572 14.5485 67.7053 14.4755 67.9819 14.4755ZM67.9819 10.1552C68.3901 10.1552 68.7294 10.29 68.9992 10.5592C69.2684 10.8285 69.4036 11.1521 69.4036 11.5297C69.4036 11.9226 69.2684 12.2537 68.9992 12.5229C68.7294 12.7921 68.3901 12.9264 67.9819 12.9264C67.5737 12.9264 67.2314 12.7921 66.9542 12.5229C66.6774 12.2537 66.5391 11.9226 66.5391 11.5297C66.5391 11.1521 66.6774 10.8285 66.9542 10.5592C67.2314 10.29 67.5739 10.1552 67.9819 10.1552Z" fill="#37449A"/>
<path d="M73.7988 10.1552C74.207 10.1552 74.5493 10.29 74.8266 10.5592C75.1033 10.8285 75.2422 11.1521 75.2422 11.5297C75.2422 11.9226 75.1033 12.2537 74.8266 12.5229C74.5493 12.7921 74.207 12.9264 73.7988 12.9264C73.3907 12.9264 73.0478 12.7921 72.7711 12.5229C72.4938 12.2537 72.3555 11.9226 72.3555 11.5297C72.3555 11.1521 72.4938 10.8285 72.7711 10.5592C73.0476 10.29 73.3907 10.1552 73.7988 10.1552ZM73.7988 14.4755C74.0903 14.4755 74.3416 14.5485 74.5531 14.6939C74.7647 14.8392 74.87 15.0646 74.87 15.3698V25.2538C74.87 25.5595 74.7647 25.7849 74.5531 25.9304C74.3416 26.0759 74.0903 26.1482 73.7988 26.1482C73.5215 26.1482 73.2741 26.0758 73.0551 25.9304C72.8368 25.7849 72.7275 25.5595 72.7275 25.2538V15.3698C72.7275 15.0646 72.8368 14.8392 73.0551 14.6939C73.274 14.5485 73.5215 14.4755 73.7988 14.4755Z" fill="#37449A"/>
</g>
<defs>
<clipPath id="clip0">
<rect width="120" height="38.8966" fill="white"/>
</clipPath>
</defs>
</svg>
