<svg width="35" height="35" viewBox="0 0 35 35" fill="none" xmlns="http://www.w3.org/2000/svg">
<path d="M17.4974 2.91391C9.44011 2.91391 2.91406 9.43995 2.91406 17.4972C2.91241 20.5587 3.87483 23.5429 5.6648 26.0266C7.45476 28.5102 9.98136 30.3671 12.8861 31.3339C13.6153 31.4608 13.888 31.0233 13.888 30.6397C13.888 30.2941 13.8691 29.1464 13.8691 27.9243C10.2057 28.5995 9.25781 27.0318 8.96615 26.2108C8.80135 25.7908 8.09115 24.4972 7.47136 24.1502C6.96094 23.8775 6.23177 23.2022 7.4524 23.1847C8.60156 23.1658 9.42115 24.242 9.69531 24.6795C11.0078 26.8845 13.1049 26.2647 13.942 25.8827C14.0703 24.9347 14.4524 24.2975 14.8724 23.9329C11.6276 23.5683 8.23698 22.3097 8.23698 16.7316C8.23698 15.145 8.80136 13.8339 9.73177 12.8116C9.58594 12.447 9.07552 10.9522 9.8776 8.94704C9.8776 8.94704 11.0982 8.56495 13.888 10.4433C15.0752 10.1138 16.3018 9.94795 17.5339 9.95037C18.7734 9.95037 20.013 10.1137 21.1797 10.4418C23.968 8.54599 25.1901 8.94849 25.1901 8.94849C25.9922 10.9537 25.4818 12.4485 25.3359 12.8131C26.2649 13.8339 26.8307 15.1275 26.8307 16.7316C26.8307 22.3287 23.4226 23.5683 20.1778 23.9329C20.7057 24.3879 21.1622 25.2629 21.1622 26.6308C21.1622 28.5806 21.1432 30.1483 21.1432 30.6412C21.1432 31.0233 21.4174 31.4783 22.1466 31.3325C25.0414 30.3551 27.5569 28.4945 29.3389 26.0127C31.121 23.5308 32.0799 20.5526 32.0807 17.4972C32.0807 9.43995 25.5547 2.91391 17.4974 2.91391Z" fill="#595959"/>
</svg>
