<svg width="30" height="30" viewBox="0 0 30 30" fill="none" xmlns="http://www.w3.org/2000/svg">
<path d="M14.5 2C21.4038 2 27 7.59625 27 14.5C27 21.4038 21.4038 27 14.5 27C12.3725 27 10.3688 26.4688 8.615 25.5313L2 27L3.47 20.3875C2.5325 18.6325 2 16.6288 2 14.5C2 7.59625 7.59625 2 14.5 2ZM14.5 8.25C12.5025 8.25 10.75 9.925 10.75 12V13.25H9.5V19.5H19.5V13.25H18.25V12C18.25 9.92875 16.5713 8.25 14.5 8.25ZM17 15.75V17H12V15.75H17ZM14.5 10.75C15.095 10.75 15.75 11.3625 15.75 12V13.25H13.25V12C13.25 11.3625 13.8588 10.75 14.5 10.75Z" fill="#36CBA1"/>
</svg>
