<svg width="30" height="30" viewBox="0 0 30 30" fill="none" xmlns="http://www.w3.org/2000/svg">
<path d="M22.5387 20.7712L27.8925 26.1237L26.1238 27.8925L20.7713 22.5387C18.7797 24.1352 16.3025 25.0036 13.75 25C7.54 25 2.5 19.96 2.5 13.75C2.5 7.53995 7.54 2.49995 13.75 2.49995C19.96 2.49995 25 7.53995 25 13.75C25.0036 16.3025 24.1353 18.7796 22.5387 20.7712ZM20.0312 19.8437C21.6176 18.2123 22.5036 16.0255 22.5 13.75C22.5 8.91495 18.5837 4.99995 13.75 4.99995C8.915 4.99995 5 8.91495 5 13.75C5 18.5837 8.915 22.5 13.75 22.5C16.0255 22.5035 18.2124 21.6176 19.8438 20.0312L20.0312 19.8437Z" fill="#595959"/>
</svg>
