<svg width="30" height="30" viewBox="0 0 30 30" fill="none" xmlns="http://www.w3.org/2000/svg">
<path d="M9.11376 26.03L2.50001 27.5L3.97001 20.8862C3.00193 19.0754 2.49692 17.0533 2.50001 15C2.50001 8.0962 8.09626 2.49995 15 2.49995C21.9038 2.49995 27.5 8.0962 27.5 15C27.5 21.9037 21.9038 27.5 15 27.5C12.9467 27.503 10.9245 26.998 9.11376 26.03ZM9.47626 23.3887L10.2925 23.8262C11.7407 24.6001 13.358 25.0034 15 25C16.9778 25 18.9112 24.4135 20.5557 23.3146C22.2002 22.2158 23.4819 20.654 24.2388 18.8268C24.9957 16.9995 25.1937 14.9889 24.8079 13.0491C24.422 11.1092 23.4696 9.32741 22.0711 7.92889C20.6726 6.53036 18.8907 5.57795 16.9509 5.1921C15.0111 4.80625 13.0004 5.00428 11.1732 5.76116C9.34592 6.51803 7.78413 7.79976 6.68532 9.44425C5.5865 11.0887 5.00001 13.0221 5.00001 15C5.00001 16.6675 5.40626 18.2725 6.17501 19.7075L6.61126 20.5237L5.79251 24.2075L9.47626 23.3887Z" fill="#595959"/>
</svg>
