<svg width="30" height="30" viewBox="0 0 30 30" fill="none" xmlns="http://www.w3.org/2000/svg">
<path d="M22.5 16.25H21.65L19.15 18.75H21.5375L23.75 21.25H6.25L8.475 18.75H11.0375L8.5375 16.25H7.5L3.75 20V25C3.75 26.375 4.8625 27.5 6.2375 27.5H23.75C24.413 27.5 25.0489 27.2366 25.5178 26.7678C25.9866 26.2989 26.25 25.663 26.25 25V20L22.5 16.25ZM21.25 9.9375L15.0625 16.125L10.6375 11.7L16.825 5.5125L21.25 9.9375ZM15.95 2.8625L7.9875 10.825C7.87162 10.9406 7.77969 11.078 7.71696 11.2292C7.65423 11.3804 7.62195 11.5425 7.62195 11.7062C7.62195 11.87 7.65423 12.0321 7.71696 12.1833C7.77969 12.3345 7.87162 12.4719 7.9875 12.5875L14.175 18.775C14.6625 19.2625 15.45 19.2625 15.9375 18.775L23.8875 10.825C24.0034 10.7094 24.0953 10.572 24.158 10.4208C24.2208 10.2696 24.2531 10.1075 24.2531 9.94375C24.2531 9.78004 24.2208 9.61794 24.158 9.46672C24.0953 9.3155 24.0034 9.17814 23.8875 9.0625L17.7 2.875C17.5872 2.757 17.4519 2.66286 17.302 2.59816C17.1522 2.53346 16.9909 2.49952 16.8276 2.49835C16.6644 2.49719 16.5026 2.52882 16.3519 2.59137C16.2011 2.65392 16.0645 2.74612 15.95 2.8625Z" fill="#595959"/>
</svg>
