<svg width="25" height="25" viewBox="0 0 25 25" fill="none" xmlns="http://www.w3.org/2000/svg">
<path fill-rule="evenodd" clip-rule="evenodd" d="M13.2071 5.70711C13.5976 5.31658 13.5976 4.68342 13.2071 4.29289C12.8166 3.90237 12.1834 3.90237 11.7929 4.29289L4.29289 11.7929C3.90237 12.1834 3.90237 12.8166 4.29289 13.2071L11.7929 20.7071C12.1834 21.0976 12.8166 21.0976 13.2071 20.7071C13.5976 20.3166 13.5976 19.6834 13.2071 19.2929L6.41421 12.5L13.2071 5.70711ZM19.2071 5.70711C19.5976 5.31658 19.5976 4.68342 19.2071 4.29289C18.8166 3.90237 18.1834 3.90237 17.7929 4.29289L10.2929 11.7929C9.90237 12.1834 9.90237 12.8166 10.2929 13.2071L17.7929 20.7071C18.1834 21.0976 18.8166 21.0976 19.2071 20.7071C19.5976 20.3166 19.5976 19.6834 19.2071 19.2929L12.4142 12.5L19.2071 5.70711Z" fill="white"/>
</svg>
