<svg width="20" height="20" viewBox="0 0 20 20" fill="none" xmlns="http://www.w3.org/2000/svg">
<path d="M8.33301 9.1667V6.6667L12.4997 10L8.33301 13.3334V10.8334H0.833008V9.1667H8.33301ZM2.04801 12.5H3.81801C4.39971 13.9326 5.4611 15.1185 6.8206 15.855C8.18011 16.5914 9.75327 16.8326 11.271 16.5373C12.7887 16.242 14.1566 15.4285 15.1408 14.2361C16.125 13.0436 16.6642 11.5462 16.6663 10C16.6672 8.45225 16.1295 6.9524 15.1454 5.75772C14.1614 4.56304 12.7923 3.748 11.273 3.45238C9.75369 3.15676 8.17888 3.39899 6.81866 4.13752C5.45843 4.87605 4.39756 6.06485 3.81801 7.50004H2.04801C3.10967 4.1192 6.26801 1.6667 9.99968 1.6667C14.6022 1.6667 18.333 5.39754 18.333 10C18.333 14.6025 14.6022 18.3334 9.99968 18.3334C6.26801 18.3334 3.10967 15.8809 2.04801 12.5Z" fill="#0442BF"/>
</svg>
