<svg width="60" height="60" viewBox="0 0 60 60" fill="none" xmlns="http://www.w3.org/2000/svg">
<path d="M30 54.9999C16.1925 54.9999 5 43.8074 5 29.9999C5 16.1924 16.1925 4.99988 30 4.99988C43.8075 4.99988 55 16.1924 55 29.9999C55 43.8074 43.8075 54.9999 30 54.9999ZM30 49.9999C35.3043 49.9999 40.3914 47.8927 44.1421 44.142C47.8929 40.3913 50 35.3042 50 29.9999C50 24.6955 47.8929 19.6085 44.1421 15.8577C40.3914 12.107 35.3043 9.99988 30 9.99988C24.6957 9.99988 19.6086 12.107 15.8579 15.8577C12.1071 19.6085 10 24.6955 10 29.9999C10 35.3042 12.1071 40.3913 15.8579 44.142C19.6086 47.8927 24.6957 49.9999 30 49.9999ZM27.5075 39.9999L16.9 29.3924L20.435 25.8574L27.5075 32.9299L41.6475 18.7874L45.185 22.3224L27.5075 39.9999Z" fill="#456FC5"/>
</svg>
