<svg width="20" height="20" viewBox="0 0 20 20" fill="none" xmlns="http://www.w3.org/2000/svg">
<path d="M8.97778 5.45829V6.96381H5.42222V15.2442H13.2444V11.4804H14.6667V15.997C14.6667 16.1966 14.5917 16.3881 14.4584 16.5293C14.325 16.6704 14.1442 16.7497 13.9556 16.7497H4.71111C4.52251 16.7497 4.34164 16.6704 4.20828 16.5293C4.07492 16.3881 4 16.1966 4 15.997V6.21105C4 6.0114 4.07492 5.81994 4.20828 5.67876C4.34164 5.53759 4.52251 5.45829 4.71111 5.45829H8.97778ZM16.8 3.2V9.2221H15.3778V5.76918L9.83609 11.6362L8.83058 10.5718L14.3716 4.70552H11.1111V3.2H16.8Z" fill="#0442BF"/>
</svg>
