<svg width="60" height="60" viewBox="0 0 60 60" fill="none" xmlns="http://www.w3.org/2000/svg">
<g clip-path="url(#clip0)">
<path d="M12.3223 47.6776C2.55895 37.9142 2.55895 22.0856 12.3223 12.3223C22.0857 2.55889 37.9143 2.55889 47.6777 12.3223C57.441 22.0856 57.441 37.9142 47.6777 47.6776C37.9143 57.441 22.0857 57.441 12.3223 47.6776ZM15.8579 44.1421C19.6086 47.8928 24.6957 49.9999 30 49.9999C35.3043 49.9999 40.3914 47.8928 44.1421 44.1421C47.8929 40.3913 50 35.3043 50 29.9999C50 24.6956 47.8929 19.6085 44.1421 15.8578C40.3914 12.1071 35.3043 9.99993 30 9.99993C24.6957 9.99993 19.6086 12.1071 15.8579 15.8578C12.1071 19.6085 10 24.6956 10 29.9999C10 35.3043 12.1071 40.3913 15.8579 44.1421ZM32.4996 27.5003L42.4999 27.4985L42.4999 32.5013L32.4996 32.4996L32.5014 42.4998H27.4986L27.5004 32.4996L17.5001 32.5013L17.5001 27.4985L27.5004 27.5003L27.4986 17.5001H32.5014L32.4996 27.5003Z" fill="#595959"/>
</g>
<defs>
<clipPath id="clip0">
<rect width="60" height="60" fill="white"/>
</clipPath>
</defs>
</svg>
