<svg width="30" height="30" viewBox="0 0 30 30" fill="none" xmlns="http://www.w3.org/2000/svg">
<path d="M14.9997 27.0002C21.6275 27.0002 27.0004 21.6274 27.0004 14.9996C27.0004 8.37177 21.6275 2.99889 14.9997 2.99889C8.37191 2.99889 2.99902 8.37177 2.99902 14.9996C2.99902 21.6274 8.37191 27.0002 14.9997 27.0002Z" fill="#E2E2E2"/>
<path d="M8.58013 9.32317H13.0475C13.0475 9.32317 17.1052 15.4522 17.2251 15.6166C17.3478 15.7826 17.362 15.6166 17.362 15.6166C17.1748 14.6682 16.9717 14.2425 16.9717 12.7252V9.32317H21.4202V20.6774H16.9717C16.9717 20.6774 12.9973 14.8754 12.8774 14.715C12.757 14.5535 12.7411 14.715 12.7411 14.715C12.894 15.4979 13.0292 15.6286 13.0292 16.9884V20.6775H8.58008V9.32317H8.58013Z" fill="white"/>
</svg>
