<svg width="40" height="40" viewBox="0 0 40 40" fill="none" xmlns="http://www.w3.org/2000/svg">
<circle cx="20" cy="20" r="20" fill="#FFEB3B"/>
<path d="M20.4444 9.77777C27.3173 9.77777 32.8889 13.9968 32.8889 19.2026C32.8889 24.4073 27.3173 28.6263 20.4444 28.6263C19.7601 28.6266 19.0764 28.5843 18.3976 28.4996L13.1733 31.8193C12.5796 32.1245 12.3698 32.0911 12.6139 31.3438L13.6711 27.1086C10.2578 25.4275 8 22.5142 8 19.2026C8 13.9979 13.5716 9.77777 20.4444 9.77777ZM27.4453 19.0587L29.1876 17.419C29.2881 17.3175 29.3442 17.1821 29.344 17.0413C29.3438 16.9005 29.2874 16.7653 29.1866 16.6641C29.0858 16.5629 28.9486 16.5036 28.8037 16.4988C28.6589 16.494 28.5177 16.544 28.4101 16.6383L26.125 18.7869V17.0113C26.125 16.8672 26.0661 16.729 25.9612 16.627C25.8563 16.5251 25.714 16.4678 25.5656 16.4678C25.4173 16.4678 25.275 16.5251 25.1701 16.627C25.0652 16.729 25.0062 16.8672 25.0062 17.0113V19.9557C24.9853 20.0397 24.9853 20.1273 25.0062 20.2113V21.8683C25.0062 22.0124 25.0652 22.1507 25.1701 22.2526C25.275 22.3545 25.4173 22.4118 25.5656 22.4118C25.714 22.4118 25.8563 22.3545 25.9612 22.2526C26.0661 22.1507 26.125 22.0124 26.125 21.8683V20.2988L26.6311 19.8232L28.3236 22.1642C28.3658 22.2226 28.4195 22.2724 28.4816 22.3107C28.5436 22.349 28.6128 22.375 28.6853 22.3873C28.7577 22.3996 28.8319 22.3979 28.9036 22.3824C28.9754 22.3668 29.0433 22.3377 29.1034 22.2966C29.1636 22.2556 29.2148 22.2034 29.2542 22.1431C29.2936 22.0828 29.3204 22.0156 29.3331 21.9452C29.3457 21.8748 29.344 21.8028 29.328 21.7331C29.312 21.6633 29.282 21.5974 29.2397 21.5389L27.4453 19.0575V19.0587ZM23.9396 21.2741H22.2092V17.0286C22.2026 16.8889 22.1408 16.7571 22.0367 16.6606C21.9326 16.564 21.7943 16.5101 21.6504 16.5101C21.5065 16.5101 21.3681 16.564 21.264 16.6606C21.1599 16.7571 21.0982 16.8889 21.0916 17.0286V21.8176C21.0916 22.117 21.3404 22.3611 21.6498 22.3611H23.9396C24.0879 22.3611 24.2302 22.3038 24.3351 22.2019C24.44 22.1 24.499 21.9617 24.499 21.8176C24.499 21.6735 24.44 21.5352 24.3351 21.4333C24.2302 21.3314 24.0879 21.2741 23.9396 21.2741ZM16.9979 20.0167L17.8228 18.0511L18.579 20.0167H16.9979ZM19.9881 20.5786L19.9905 20.5602C19.9902 20.4233 19.9364 20.2916 19.84 20.1917L18.6003 16.9676C18.5483 16.8139 18.4493 16.6794 18.3166 16.5818C18.1838 16.4843 18.0235 16.4285 17.8572 16.4218C17.6896 16.4211 17.5259 16.4699 17.3876 16.5619C17.2494 16.6538 17.1432 16.7845 17.0833 16.9365L15.1147 21.6288C15.0869 21.6948 15.0728 21.7656 15.0731 21.837C15.0735 21.9083 15.0883 21.979 15.1168 22.0448C15.1452 22.1106 15.1867 22.1703 15.2389 22.2205C15.2911 22.2708 15.353 22.3105 15.421 22.3375C15.4891 22.3645 15.5619 22.3782 15.6353 22.3778C15.7088 22.3775 15.7815 22.3631 15.8492 22.3354C15.917 22.3078 15.9784 22.2675 16.0301 22.2168C16.0818 22.166 16.1227 22.1059 16.1505 22.0398L16.5416 21.1037H18.995L19.3493 22.0249C19.3734 22.0937 19.4115 22.1572 19.4613 22.2115C19.5111 22.2658 19.5716 22.3098 19.6392 22.341C19.7069 22.3722 19.7802 22.3898 19.855 22.3929C19.9298 22.396 20.0045 22.3845 20.0746 22.3591C20.1447 22.3337 20.2089 22.2948 20.2633 22.2449C20.3177 22.1949 20.3612 22.1348 20.3913 22.0682C20.4213 22.0016 20.4373 21.9298 20.4383 21.8571C20.4393 21.7844 20.4253 21.7122 20.397 21.6449L19.9881 20.5786ZM16.051 17.0344C16.051 16.8904 15.9922 16.7524 15.8875 16.6505C15.7829 16.5486 15.6409 16.4912 15.4927 16.4909H11.6468C11.4985 16.4909 11.3562 16.5481 11.2513 16.6501C11.1463 16.752 11.0874 16.8902 11.0874 17.0344C11.0874 17.1785 11.1463 17.3168 11.2513 17.4187C11.3562 17.5206 11.4985 17.5779 11.6468 17.5779H13.0216V21.8798C13.0216 22.0239 13.0806 22.1622 13.1855 22.2641C13.2904 22.366 13.4327 22.4233 13.581 22.4233C13.7294 22.4233 13.8717 22.366 13.9766 22.2641C14.0815 22.1622 14.1404 22.0239 14.1404 21.8798V17.5779H15.4916C15.8009 17.5779 16.051 17.3338 16.051 17.0344Z" fill="#595959"/>
</svg>
