<svg width="40" height="40" viewBox="0 0 40 40" fill="none" xmlns="http://www.w3.org/2000/svg">
<circle cx="20" cy="20" r="20" fill="white"/>
<path d="M20.0577 0.833344C9.43608 0.833344 0.833011 9.43641 0.833011 20.0581C0.83083 24.0939 2.09956 28.0279 4.45921 31.302C6.81886 34.5761 10.1496 37.024 13.9789 38.2985C14.9401 38.4658 15.2996 37.889 15.2996 37.3834C15.2996 36.9278 15.2746 35.4148 15.2746 33.8038C10.4454 34.6939 9.19577 32.6272 8.81127 31.5448C8.59403 30.9912 7.65779 29.2859 6.84074 28.8284C6.16787 28.4689 5.20664 27.5788 6.81575 27.5557C8.33066 27.5307 9.41109 28.9495 9.77251 29.5263C11.5027 32.433 14.2673 31.616 15.3708 31.1123C15.5399 29.8627 16.0436 29.0226 16.5973 28.5419C12.3198 28.0613 7.85004 26.4022 7.85004 19.0488C7.85004 16.9571 8.59403 15.2288 9.82057 13.8812C9.62832 13.4005 8.95546 11.43 10.0128 8.78661C10.0128 8.78661 11.6219 8.28293 15.2996 10.7591C16.8646 10.3247 18.4816 10.1061 20.1058 10.1093C21.7399 10.1093 23.374 10.3246 24.912 10.7571C28.5878 8.25793 30.1988 8.78854 30.1988 8.78854C31.2561 11.4319 30.5833 13.4025 30.391 13.8831C31.6156 15.2288 32.3616 16.9341 32.3616 19.0488C32.3616 26.4272 27.8687 28.0613 23.5912 28.5419C24.2872 29.1418 24.8889 30.2952 24.8889 32.0985C24.8889 34.6689 24.8639 36.7355 24.8639 37.3853C24.8639 37.889 25.2253 38.4888 26.1866 38.2966C30.0027 37.0081 33.3188 34.5554 35.668 31.2837C38.0173 28.0119 39.2814 24.0859 39.2825 20.0581C39.2825 9.43641 30.6794 0.833344 20.0577 0.833344Z" fill="#393939"/>
</svg>
