<svg width="20" height="20" viewBox="0 0 20 20" fill="none" xmlns="http://www.w3.org/2000/svg">
<path d="M6.15857 13.7825C5.00145 12.9665 4.13419 11.8032 3.68243 10.4613C3.23067 9.11945 3.21787 7.66857 3.6459 6.31892C4.07392 4.96927 4.92054 3.79094 6.06308 2.95466C7.20563 2.11838 8.58475 1.66759 10.0006 1.66759C11.4165 1.66759 12.7957 2.11838 13.9382 2.95466C15.0808 3.79094 15.9274 4.96927 16.3554 6.31892C16.7834 7.66857 16.7706 9.11945 16.3189 10.4613C15.8671 11.8032 14.9998 12.9665 13.8427 13.7825L15.5786 17.7491C15.6064 17.8126 15.618 17.8821 15.6123 17.9512C15.6065 18.0203 15.5836 18.0869 15.5456 18.1449C15.5077 18.2029 15.4558 18.2505 15.3947 18.2834C15.3337 18.3163 15.2654 18.3334 15.1961 18.3333H4.8044C4.73516 18.3334 4.66699 18.3162 4.60605 18.2834C4.5451 18.2505 4.49331 18.203 4.45534 18.1451C4.41738 18.0872 4.39444 18.0207 4.3886 17.9518C4.38276 17.8828 4.39421 17.8134 4.4219 17.75L6.15773 13.7825H6.15857ZM11.7711 13.205L12.8811 12.4208C13.7492 11.809 14.3999 10.9366 14.739 9.93014C15.0781 8.92368 15.0878 7.8354 14.7669 6.823C14.446 5.8106 13.8111 4.92668 12.9541 4.29934C12.0971 3.672 11.0627 3.33383 10.0006 3.33383C8.93861 3.33383 7.90415 3.672 7.04719 4.29934C6.19023 4.92668 5.55529 5.8106 5.23437 6.823C4.91346 7.8354 4.92325 8.92368 5.26232 9.93014C5.60139 10.9366 6.25213 11.809 7.12023 12.4208L8.2294 13.205L6.71523 16.6666H13.2852L11.7711 13.205ZM6.76607 9.14162L8.38273 8.73745C8.47245 9.09859 8.68044 9.41931 8.97358 9.64853C9.26671 9.87775 9.62812 10.0023 10.0002 10.0023C10.3723 10.0023 10.7338 9.87775 11.0269 9.64853C11.32 9.41931 11.528 9.09859 11.6177 8.73745L13.2344 9.14162C13.0531 9.86203 12.6365 10.5013 12.0506 10.958C11.4647 11.4147 10.7431 11.6627 10.0002 11.6627C9.25736 11.6627 8.53576 11.4147 7.94987 10.958C7.36399 10.5013 6.94736 9.86203 6.76607 9.14162Z" fill="#A6A6A6"/>
</svg>
