<svg width="20" height="20" viewBox="0 0 20 20" fill="none" xmlns="http://www.w3.org/2000/svg">
<path d="M16.667 15.5559L17.0003 16C17.0468 16.0619 17.075 16.1355 17.082 16.2126C17.0889 16.2897 17.0743 16.3672 17.0397 16.4364C17.0051 16.5056 16.9519 16.5638 16.886 16.6045C16.8202 16.6452 16.7444 16.6667 16.667 16.6667H3.33366C3.25628 16.6667 3.18043 16.6452 3.1146 16.6045C3.04878 16.5638 2.99559 16.5056 2.96098 16.4364C2.92638 16.3672 2.91173 16.2897 2.91868 16.2126C2.92563 16.1355 2.9539 16.0619 3.00033 16L3.33366 15.5559V8.33337C3.33366 6.56526 4.03604 4.86957 5.28628 3.61932C6.53652 2.36908 8.23222 1.6667 10.0003 1.6667C11.7684 1.6667 13.4641 2.36908 14.7144 3.61932C15.9646 4.86957 16.667 6.56526 16.667 8.33337V15.5559ZM7.91699 17.5H12.0837C12.0837 18.0526 11.8642 18.5825 11.4735 18.9732C11.0828 19.3639 10.5529 19.5834 10.0003 19.5834C9.44779 19.5834 8.91789 19.3639 8.52719 18.9732C8.13649 18.5825 7.91699 18.0526 7.91699 17.5Z" fill="#0442BF"/>
</svg>
