<svg width="25" height="25" viewBox="0 0 25 25" fill="none" xmlns="http://www.w3.org/2000/svg">
<path fill-rule="evenodd" clip-rule="evenodd" d="M11.2929 19.2929C10.9024 19.6834 10.9024 20.3166 11.2929 20.7071C11.6834 21.0976 12.3166 21.0976 12.7071 20.7071L20.2071 13.2071C20.5976 12.8166 20.5976 12.1834 20.2071 11.7929L12.7071 4.29289C12.3166 3.90237 11.6834 3.90237 11.2929 4.29289C10.9024 4.68342 10.9024 5.31658 11.2929 5.70711L18.0858 12.5L11.2929 19.2929ZM5.29289 19.2929C4.90237 19.6834 4.90237 20.3166 5.29289 20.7071C5.68342 21.0976 6.31658 21.0976 6.70711 20.7071L14.2071 13.2071C14.5976 12.8166 14.5976 12.1834 14.2071 11.7929L6.70711 4.29289C6.31658 3.90237 5.68342 3.90237 5.29289 4.29289C4.90237 4.68342 4.90237 5.31658 5.29289 5.70711L12.0858 12.5L5.29289 19.2929Z" fill="#E2E2E2"/>
</svg>
