<svg width="30" height="30" viewBox="0 0 30 30" fill="none" xmlns="http://www.w3.org/2000/svg">
<path d="M1.47656 15C2.65156 8.6 8.26031 3.75 15.0003 3.75C21.7403 3.75 27.3478 8.6 28.5241 15C27.3491 21.4 21.7403 26.25 15.0003 26.25C8.26031 26.25 2.65281 21.4 1.47656 15ZM15.0003 21.25C16.6579 21.25 18.2476 20.5915 19.4197 19.4194C20.5918 18.2473 21.2503 16.6576 21.2503 15C21.2503 13.3424 20.5918 11.7527 19.4197 10.5806C18.2476 9.40848 16.6579 8.75 15.0003 8.75C13.3427 8.75 11.753 9.40848 10.5809 10.5806C9.40879 11.7527 8.75031 13.3424 8.75031 15C8.75031 16.6576 9.40879 18.2473 10.5809 19.4194C11.753 20.5915 13.3427 21.25 15.0003 21.25ZM15.0003 18.75C14.0058 18.75 13.0519 18.3549 12.3487 17.6517C11.6454 16.9484 11.2503 15.9946 11.2503 15C11.2503 14.0054 11.6454 13.0516 12.3487 12.3483C13.0519 11.6451 14.0058 11.25 15.0003 11.25C15.9949 11.25 16.9487 11.6451 17.652 12.3483C18.3552 13.0516 18.7503 14.0054 18.7503 15C18.7503 15.9946 18.3552 16.9484 17.652 17.6517C16.9487 18.3549 15.9949 18.75 15.0003 18.75Z" fill="#E2E2E2"/>
</svg>
