<svg width="30" height="30" viewBox="0 0 30 30" fill="none" xmlns="http://www.w3.org/2000/svg">
<path d="M14.998 2.49763C8.0918 2.49763 2.49805 8.09138 2.49805 14.9976C2.49663 17.6217 3.32157 20.1796 4.85582 22.3085C6.39007 24.4373 8.55573 26.029 11.0455 26.8576C11.6705 26.9664 11.9043 26.5914 11.9043 26.2626C11.9043 25.9664 11.888 24.9826 11.888 23.9351C8.74805 24.5139 7.93555 23.1701 7.68555 22.4664C7.5443 22.1064 6.93555 20.9976 6.4043 20.7001C5.9668 20.4664 5.3418 19.8876 6.38805 19.8726C7.37305 19.8564 8.07555 20.7789 8.31055 21.1539C9.43555 23.0439 11.233 22.5126 11.9505 22.1851C12.0605 21.3726 12.388 20.8264 12.748 20.5139C9.9668 20.2014 7.06055 19.1226 7.06055 14.3414C7.06055 12.9814 7.5443 11.8576 8.3418 10.9814C8.2168 10.6689 7.7793 9.38764 8.4668 7.66889C8.4668 7.66889 9.51305 7.34138 11.9043 8.95139C12.9219 8.66896 13.9733 8.52681 15.0293 8.52888C16.0918 8.52888 17.1543 8.66889 18.1543 8.95014C20.5443 7.32514 21.5918 7.67014 21.5918 7.67014C22.2793 9.38889 21.8418 10.6701 21.7168 10.9826C22.513 11.8576 22.998 12.9664 22.998 14.3414C22.998 19.1389 20.0768 20.2014 17.2955 20.5139C17.748 20.9039 18.1393 21.6539 18.1393 22.8264C18.1393 24.4976 18.123 25.8414 18.123 26.2639C18.123 26.5914 18.358 26.9814 18.983 26.8564C21.4643 26.0186 23.6204 24.4239 25.1479 22.2966C26.6754 20.1693 27.4973 17.6165 27.498 14.9976C27.498 8.09138 21.9043 2.49763 14.998 2.49763Z" fill="#E2E2E2"/>
</svg>
