<svg width="30" height="30" viewBox="0 0 30 30" fill="none" xmlns="http://www.w3.org/2000/svg">
<g clip-path="url(#clip0)">
<path d="M2.46572 9.163C3.61185 7.00922 5.37011 5.19866 7.54396 3.93371C9.71782 2.66875 12.2216 1.99924 14.7755 2C18.488 2 21.6068 3.287 23.9913 5.3865L20.0419 9.1149C18.6134 7.8266 16.7978 7.1701 14.7755 7.1701C11.187 7.1701 8.14949 9.4581 7.06811 12.53C6.7926 13.31 6.63556 14.142 6.63556 15C6.63556 15.858 6.7926 16.69 7.06811 17.47C8.15087 20.5432 11.187 22.8299 14.7755 22.8299C16.6283 22.8299 18.2056 22.3684 19.4399 21.5884C20.1554 21.1438 20.768 20.5669 21.2406 19.8925C21.7132 19.2182 22.036 18.4604 22.1895 17.665H14.7755V12.6366H27.7493C27.9118 13.4868 28 14.3734 28 15.2951C28 19.2549 26.4985 22.5881 23.8921 24.8501C21.6137 26.8365 18.4949 28 14.7755 28C12.9663 28.0007 11.1746 27.6649 9.50299 27.0118C7.83135 26.3588 6.31246 25.4012 5.03314 24.1939C3.75382 22.9866 2.73915 21.5532 2.04712 19.9757C1.3551 18.3982 0.999277 16.7074 1 15C1 12.9018 1.53174 10.918 2.46572 9.163Z" fill="#E2E2E2"/>
</g>
<defs>
<clipPath id="clip0">
<rect width="30" height="30" fill="white"/>
</clipPath>
</defs>
</svg>
