<svg width="20" height="20" viewBox="0 0 20 20" fill="none" xmlns="http://www.w3.org/2000/svg">
<path d="M15.6667 16.4444H16.4444V6.97733L15.0227 5.55556H14.1111V8.66667H7.11111V5.55556H5.55556V16.4444H6.33333V11H15.6667V16.4444ZM4.77778 4H15.6667L17.7721 6.10544C17.918 6.25127 18 6.44907 18 6.65533V17.2222C18 17.4285 17.9181 17.6263 17.7722 17.7722C17.6263 17.9181 17.4285 18 17.2222 18H4.77778C4.5715 18 4.37367 17.9181 4.22781 17.7722C4.08194 17.6263 4 17.4285 4 17.2222V4.77778C4 4.5715 4.08194 4.37367 4.22781 4.22781C4.37367 4.08194 4.5715 4 4.77778 4ZM7.88889 12.5556V16.4444H14.1111V12.5556H7.88889Z" fill="#0442BF"/>
</svg>
