<svg width="29" height="30" viewBox="0 0 29 30" fill="none" xmlns="http://www.w3.org/2000/svg">
<path d="M6.82437 22.6537C3.7162 20.7075 1.80273 17.64 1.80273 14.2562C1.80273 8.37625 7.50947 3.75 14.4229 3.75C21.3364 3.75 27.0431 8.37625 27.0431 14.2562C27.0431 20.1362 21.3364 24.7625 14.4229 24.7625C13.8917 24.7625 13.3628 24.735 12.8388 24.6812L8.31355 27.7537C7.57437 28.1612 7.16331 28.285 6.5287 27.8362C5.7835 27.3062 5.81235 26.7212 6.07076 25.8862L6.82437 22.6537ZM4.20658 14.2562C4.20658 16.9212 5.91091 19.41 8.75105 20.9062L9.59961 21.355L9.37605 22.3175L8.89408 24.3775L12.2595 22.09L12.6994 22.1475C13.2679 22.2237 13.8436 22.2625 14.4229 22.2625C20.1212 22.2625 24.6393 18.6 24.6393 14.2562C24.6393 9.9125 20.1212 6.25 14.4229 6.25C8.72461 6.25 4.20658 9.9125 4.20658 14.2562ZM21.5227 13.8237L23.3424 16.5175C23.3853 16.5809 23.4157 16.6525 23.4319 16.7282C23.4482 16.8039 23.4499 16.8821 23.4371 16.9585C23.4242 17.0349 23.3971 17.1079 23.3571 17.1733C23.3172 17.2388 23.2652 17.2954 23.2042 17.34C23.1432 17.3846 23.0743 17.4162 23.0016 17.4331C22.9288 17.45 22.8536 17.4518 22.7801 17.4385C22.7067 17.4251 22.6365 17.3969 22.5736 17.3553C22.5106 17.3137 22.4562 17.2597 22.4133 17.1962L20.697 14.655L20.1837 15.1712V16.875C20.1837 17.0315 20.124 17.1815 20.0176 17.2922C19.9112 17.4028 19.7669 17.465 19.6164 17.465C19.466 17.465 19.3217 17.4028 19.2153 17.2922C19.1089 17.1815 19.0491 17.0315 19.0491 16.875V15.0762C19.0279 14.9851 19.0279 14.8899 19.0491 14.7987V11.6025C19.0491 11.446 19.1089 11.296 19.2153 11.1853C19.3217 11.0747 19.466 11.0125 19.6164 11.0125C19.7669 11.0125 19.9112 11.0747 20.0176 11.1853C20.124 11.296 20.1837 11.446 20.1837 11.6025V13.53L22.5011 11.1975C22.6102 11.0952 22.7534 11.0409 22.9002 11.0461C23.0471 11.0513 23.1864 11.1157 23.2886 11.2255C23.3908 11.3354 23.448 11.4822 23.4482 11.6351C23.4483 11.7879 23.3915 11.9349 23.2895 12.045L21.5227 13.8237ZM17.9674 16.23C18.1179 16.23 18.2622 16.2922 18.3685 16.4028C18.4749 16.5135 18.5347 16.6635 18.5347 16.82C18.5347 16.9765 18.4749 17.1265 18.3685 17.2372C18.2622 17.3478 18.1179 17.41 17.9674 17.41H15.6453C15.495 17.4097 15.351 17.3474 15.2449 17.2367C15.1388 17.1261 15.0792 16.9763 15.0792 16.82V11.6212C15.0756 11.5416 15.0877 11.462 15.1146 11.3873C15.1415 11.3126 15.1826 11.2443 15.2356 11.1866C15.2886 11.1289 15.3523 11.083 15.4228 11.0516C15.4933 11.0203 15.5692 11.0041 15.6459 11.0041C15.7226 11.0041 15.7985 11.0203 15.869 11.0516C15.9395 11.083 16.0032 11.1289 16.0562 11.1866C16.1091 11.2443 16.1503 11.3126 16.1772 11.3873C16.2041 11.462 16.2161 11.5416 16.2126 11.6212V16.23H17.9674ZM10.9277 14.865H12.5311L11.7643 12.7312L10.9277 14.865ZM13.9602 15.475L14.3749 16.6312C14.4035 16.7044 14.4177 16.7827 14.4167 16.8617C14.4157 16.9406 14.3995 17.0185 14.369 17.0908C14.3385 17.1631 14.2944 17.2283 14.2392 17.2826C14.1841 17.3368 14.119 17.379 14.0479 17.4066C13.9768 17.4342 13.901 17.4467 13.8252 17.4433C13.7493 17.4399 13.6749 17.4208 13.6063 17.3869C13.5378 17.3531 13.4764 17.3053 13.4259 17.2463C13.3754 17.1874 13.3368 17.1185 13.3124 17.0437L12.9542 16.045H10.4662L10.0684 17.0612C10.0402 17.133 9.9987 17.1982 9.94628 17.2533C9.89385 17.3084 9.83151 17.3521 9.76282 17.3822C9.69412 17.4122 9.62042 17.4278 9.54591 17.4282C9.4714 17.4286 9.39755 17.4137 9.32858 17.3844C9.2596 17.3551 9.19685 17.3119 9.14391 17.2574C9.09096 17.2029 9.04887 17.138 9.02001 17.0666C8.99116 16.9952 8.97613 16.9185 8.97576 16.841C8.97539 16.7635 8.98971 16.6867 9.01788 16.615L11.0131 11.5212C11.0739 11.356 11.1818 11.2141 11.3222 11.1142C11.4627 11.0144 11.629 10.9615 11.7991 10.9625C11.9678 10.9698 12.1303 11.0304 12.265 11.1362C12.3996 11.2421 12.5 11.3882 12.5527 11.555L13.8099 15.055C13.9077 15.1634 13.9623 15.3064 13.9626 15.455L13.9602 15.475ZM9.9674 11.6275C9.9674 11.9525 9.715 12.2175 9.40129 12.2175H8.0311V16.8875C8.0311 17.0441 7.97127 17.1944 7.86476 17.3051C7.75826 17.4159 7.61381 17.4781 7.46319 17.4781C7.31257 17.4781 7.16812 17.4159 7.06162 17.3051C6.95512 17.1944 6.89528 17.0441 6.89528 16.8875V12.2175H5.50105C5.35059 12.2175 5.2063 12.1553 5.09991 12.0447C4.99351 11.934 4.93374 11.784 4.93374 11.6275C4.93374 11.471 4.99351 11.321 5.09991 11.2103C5.2063 11.0997 5.35059 11.0375 5.50105 11.0375H9.40129C9.71379 11.0375 9.9674 11.3012 9.9674 11.6275Z" fill="#E2E2E2"/>
</svg>
