<svg width="20" height="20" viewBox="0 0 20 20" fill="none" xmlns="http://www.w3.org/2000/svg">
<path d="M4.16667 9.16671H10.8333V10.8334H4.16667V13.3334L0 10L4.16667 6.66671V9.16671ZM3.33333 15H5.59C6.55224 15.8487 7.73891 16.4016 9.00761 16.5925C10.2763 16.7834 11.5731 16.6042 12.7425 16.0763C13.9119 15.5484 14.9041 14.6943 15.6001 13.6166C16.296 12.5388 16.6663 11.283 16.6663 10C16.6663 8.71706 16.296 7.46132 15.6001 6.38353C14.9041 5.30573 13.9119 4.45165 12.7425 3.92379C11.5731 3.39592 10.2763 3.21668 9.00761 3.40759C7.73891 3.59849 6.55224 4.15142 5.59 5.00004H3.33333C4.10888 3.96435 5.11528 3.1238 6.27256 2.54516C7.42984 1.96652 8.70612 1.66573 10 1.6667C14.6025 1.6667 18.3333 5.39754 18.3333 10C18.3333 14.6025 14.6025 18.3334 10 18.3334C8.70612 18.3343 7.42984 18.0336 6.27256 17.4549C5.11528 16.8763 4.10888 16.0357 3.33333 15Z" fill="#0442BF"/>
</svg>
