<svg width="30" height="30" viewBox="0 0 30 30" fill="none" xmlns="http://www.w3.org/2000/svg">
<path d="M21.25 7.49995H27.5V9.99995H25V26.25C25 26.5815 24.8683 26.8994 24.6339 27.1338C24.3995 27.3683 24.0815 27.5 23.75 27.5H6.25C5.91848 27.5 5.60054 27.3683 5.36612 27.1338C5.1317 26.8994 5 26.5815 5 26.25V9.99995H2.5V7.49995H8.75V3.74995C8.75 3.41843 8.8817 3.10049 9.11612 2.86607C9.35054 2.63165 9.66848 2.49995 10 2.49995H20C20.3315 2.49995 20.6495 2.63165 20.8839 2.86607C21.1183 3.10049 21.25 3.41843 21.25 3.74995V7.49995ZM22.5 9.99995H7.5V25H22.5V9.99995ZM11.25 13.75H13.75V21.25H11.25V13.75ZM16.25 13.75H18.75V21.25H16.25V13.75ZM11.25 4.99995V7.49995H18.75V4.99995H11.25Z" fill="white"/>
</svg>
