<svg width="20" height="20" viewBox="0 0 20 20" fill="none" xmlns="http://www.w3.org/2000/svg">
<path d="M3.33318 16.6666V11.6666C3.33318 9.8985 4.03556 8.20281 5.2858 6.95257C6.53604 5.70232 8.23173 4.99994 9.99984 4.99994C11.768 4.99994 13.4636 5.70232 14.7139 6.95257C15.9641 8.20281 16.6665 9.8985 16.6665 11.6666V16.6666H17.4998V18.3333H2.49984V16.6666H3.33318ZM4.99984 16.6666H14.9998V11.6666C14.9998 10.3405 14.4731 9.06876 13.5354 8.13108C12.5977 7.1934 11.3259 6.66661 9.99984 6.66661C8.67376 6.66661 7.40199 7.1934 6.46431 8.13108C5.52663 9.06876 4.99984 10.3405 4.99984 11.6666V16.6666ZM9.16651 1.66661H10.8332V4.16661H9.16651V1.66661ZM16.4815 4.00661L17.6598 5.18494L15.8932 6.95244L14.714 5.77411L16.4815 4.00661ZM2.33984 5.18494L3.51818 4.00661L5.28568 5.77328L4.10818 6.95328L2.33984 5.18494ZM5.83318 11.6666C5.83318 10.5615 6.27216 9.50173 7.05357 8.72033C7.83497 7.93893 8.89477 7.49994 9.99984 7.49994V9.16661C9.3368 9.16661 8.70092 9.43 8.23208 9.89884C7.76324 10.3677 7.49984 11.0036 7.49984 11.6666H5.83318Z" fill="#595959"/>
</svg>
