<svg width="30" height="30" viewBox="0 0 30 30" fill="none" xmlns="http://www.w3.org/2000/svg">
<path d="M15.5 2C22.4038 2 28 7.59625 28 14.5C28 21.4038 22.4038 27 15.5 27C13.3725 27 11.3688 26.4688 9.615 25.5313L3 27L4.47 20.3875C3.5325 18.6325 3 16.6288 3 14.5C3 7.59625 8.59625 2 15.5 2ZM15.5 8.25C13.5025 8.25 11.75 9.925 11.75 12V13.25H10.5V19.5H20.5V13.25H19.25V12C19.25 9.92875 17.5713 8.25 15.5 8.25ZM18 15.75V17H13V15.75H18ZM15.5 10.75C16.095 10.75 16.75 11.3625 16.75 12V13.25H14.25V12C14.25 11.3625 14.8588 10.75 15.5 10.75Z" fill="#36CBA1"/>
</svg>
